<svg id="Layer_1" data-name="Layer 1" xmlns="http://www.w3.org/2000/svg" viewBox="0 0 258.8 99.21" fill="inherit"><path d="M0,49.5C0,32.3,8.6,20.4,24.6,20.4a19.93,19.93,0,0,1,6.6,1V3.1H45V62.3l1,10.3H34.2l-.9-5.2h-.5a15.21,15.21,0,0,1-13,6.8C3.8,74.2,0,61.5,0,49.5Zm31.2,7.4V31.7a13.7,13.7,0,0,0-6-1.3c-8.7,0-11.3,8.7-11.3,17.8,0,8.5,1.9,15.8,8.9,15.8C27.9,64,31.2,60.2,31.2,56.9Z"/><path d="M55.7,7.4A7.33,7.33,0,0,1,63.4,0c4.6,0,7.8,3.3,7.8,7.4s-3.2,7.4-7.8,7.4S55.7,11.7,55.7,7.4ZM70.5,21.9V72.6H56.4V21.9Z"/><path d="M95.8,3.1V21.9H112V3.1h14.1V21.9h13V32.8h-13V55.9c0,5.9,2.6,7.6,6.4,7.6a11.9,11.9,0,0,0,6.1-1.9l3.2,9c-3,2-8.2,3.5-13.3,3.5-15.2,0-16.5-8.7-16.5-17.8V32.8H95.8V55.9c0,5.9,2,7.6,5.7,7.6a11.64,11.64,0,0,0,5.7-1.6l2.1,9.4c-2.6,1.7-7.4,2.8-11.1,2.8-15.1,0-16.4-8.7-16.4-17.8V3.1Z"/><path d="M149.6,85.81c0-7.21,4.4-12.81,10.3-17.11-8.4-1.3-13-5.9-13-16V21.9h14V51.6c0,5.4.5,9.1,7,9.1,4,0,7.7-3.2,7.7-8.3V21.9h14V64.2a108.13,108.13,0,0,1-.9,13.9c-1.5,13.5-8.9,21.11-22.4,21.11C155.2,99.21,149.6,94,149.6,85.81Zm26.3-9.11V67.2c-7.4,3.5-14,8.5-14,16.11,0,3.9,2.2,5.79,6,5.79C173.8,89.1,175.9,84.4,175.9,76.7Z"/><path d="M198.7,66.8a7,7,0,0,1,7.4-7.2c5,0,7.7,2.8,7.7,7.1s-2.6,7.5-7.4,7.5C201.3,74.2,198.7,71.1,198.7,66.8Z"/><path d="M221.2,66.8a7,7,0,0,1,7.4-7.2c5,0,7.7,2.8,7.7,7.1s-2.6,7.5-7.4,7.5C223.8,74.2,221.2,71.1,221.2,66.8Z"/><path d="M243.7,66.8a7,7,0,0,1,7.4-7.2c5,0,7.7,2.8,7.7,7.1s-2.6,7.5-7.4,7.5C246.3,74.2,243.7,71.1,243.7,66.8Z"/></svg>