<?xml version="1.0" encoding="utf-8"?>
<!-- Generator: Adobe Illustrator 19.1.0, SVG Export Plug-In . SVG Version: 6.00 Build 0)  -->
<!DOCTYPE svg PUBLIC "-//W3C//DTD SVG 1.1//EN" "http://www.w3.org/Graphics/SVG/1.1/DTD/svg11.dtd">
<svg version="1.1" id="Layer_1" xmlns="http://www.w3.org/2000/svg" xmlns:xlink="http://www.w3.org/1999/xlink" x="0px" y="0px"
	 viewBox="0 0 100 100" style="enable-background:new 0 0 100 100;" xml:space="preserve">
<path d="M80,10v37.9c0,8.8-2.3,16.1-6.9,21.6c-2.6,3.2-6,5.7-10.1,7.6c-4.1,1.9-8.3,2.8-12.6,2.8c-8.5,0-15.8-2.9-21.7-8.6
	C23,65.5,20,58.4,20,50c0-8,2.9-15.1,8.7-21c5.8-5.9,12.8-8.9,20.7-8.9c1,0,2.6,0.1,4.5,0.2v20.8c-1.3-0.6-2.7-1-4.1-1
	c-2.7,0-5.1,1-7.1,3c-1.9,2-2.9,4.4-2.9,7.2c0,2.7,1,5.1,3.1,7.1c2,1.9,4.5,2.9,7.3,2.9c4.7,0,10.2-2.3,10.2-13.5V1.1
	C57.1,0.4,53.6,0,50,0C22.4,0,0,22.4,0,50c0,27.6,22.4,50,50,50s50-22.4,50-50C100,33.6,92.1,19.1,80,10z"/>
</svg>
